<?xml version="1.0" encoding="UTF-8" standalone="no"?>
<!-- Created with Inkscape (http://www.inkscape.org/) -->

<svg
   width="151"
   height="151"
   viewBox="0 0 39.952082 39.952084"
   version="1.1"
   id="svg5"
   xmlns="http://www.w3.org/2000/svg"
   xmlns:svg="http://www.w3.org/2000/svg"
   xmlns:rdf="http://www.w3.org/1999/02/22-rdf-syntax-ns#"
   xmlns:cc="http://creativecommons.org/ns#"
   xmlns:dc="http://purl.org/dc/elements/1.1/">
  <title
     id="title24040">Bangladesh Military Academy-বাংলাদেশ মিলিটারি একাডেমি</title>
  <defs
     id="defs2">
    <clipPath
       id="clip0">
      <rect
         x="274"
         y="88"
         width="481"
         height="481"
         id="rect836" />
    </clipPath>
  </defs>
  <g
     id="layer1"
     transform="translate(-2365.7309,-243.64569)">
    <g
       id="g23649"
       transform="matrix(0.51565781,0,0,0.51565781,1145.9556,118.14016)">
      <g
         id="g23612"
         transform="translate(-3.75e-5)">
        <path
           d="m 2365.731,282.12813 c 0,-21.25321 17.2292,-38.48244 38.4824,-38.48244 21.2532,0 38.4824,17.22923 38.4824,38.48244 0,21.2532 -17.2292,38.48243 -38.4824,38.48243 -21.2532,0 -38.4824,-17.22923 -38.4824,-38.48243 z"
           fill="#4472c4"
           fill-rule="evenodd"
           id="path841"
           style="fill:#00a54f;fill-opacity:1;stroke-width:0.160344" />
        <path
           id="path412"
           style="font-variation-settings:normal;fill:#f8d009;fill-opacity:1;stroke:none;stroke-width:0.1;stroke-linecap:butt;stroke-linejoin:miter;stroke-miterlimit:4;stroke-dasharray:none;stroke-dashoffset:0;stroke-opacity:1;stop-color:#000000"
           d="m 2407.9259,245.41603 c -0.1258,-0.003 -0.2374,0.0905 -0.2553,0.21756 l -0.056,0.3917 c -0.019,0.13551 0.076,0.2547 0.2119,0.2682 1.2358,0.12231 2.4129,0.34733 3.4236,0.65164 0.2489,0.0749 0.2371,0.64281 -0.1499,0.57981 -1.6183,-0.24556 -3.2838,-0.45211 -4.6855,-0.555 -0.1127,-0.008 -0.2069,0.0772 -0.2103,0.19017 l -0.016,0.56172 c 0,0.0916 0.068,0.16812 0.1596,0.17312 l 0.3483,0.0181 c 0.091,0.005 0.1618,0.0817 0.1618,0.17364 l -0.077,3.87004 c -0.013,0.66142 0.5105,1.26171 1.1715,1.25161 1.9541,-0.03 3.5184,-0.65736 4.0855,-1.62264 0.6541,-1.11342 0.1917,-2.58393 -1.4914,-2.51303 -0.5087,0.0215 -0.9505,0.38269 -1.3647,0.95602 -0.079,0.10991 -0.061,0.2802 0.035,0.3762 l 0.2956,0.29559 c 0.096,0.096 0.2348,0.0821 0.3178,-0.0253 1.1035,-1.42393 1.8189,-0.0438 1.3043,0.47284 -0.433,0.43465 -1.2483,0.92334 -2.7197,0.94464 -0.2846,0.004 -0.5102,-0.24146 -0.5002,-0.52606 l 0.1012,-3.43752 c 0,-0.0911 0.079,-0.15941 0.169,-0.15141 1.3633,0.11518 3.0551,0.41255 4.2938,0.76171 0.051,0.0143 0.1092,-0.0131 0.1282,-0.0631 0.07,-0.18578 0.1784,-0.4176 0.1684,-0.61598 0,-0.0533 -0.048,-0.10874 -0.099,-0.12454 l -0.203,-0.063 c -0.051,-0.0158 -0.083,-0.0707 -0.072,-0.12299 0.065,-0.32657 0.085,-0.67493 0.055,-0.96222 -0.014,-0.13907 -0.145,-0.29767 -0.2734,-0.35347 -1.2311,-0.53561 -2.6087,-0.81614 -4.2317,-1.01647 -0.01,-0.001 -0.017,-0.001 -0.025,-0.002 z m -7.5794,0.0501 c -0.029,-5e-4 -0.059,0.002 -0.089,0.007 h -5e-4 l -5.41,0.9617 c -0.475,0.0844 -0.7693,0.56553 -0.6278,1.02681 l 0.1917,0.62373 c 0.029,0.0947 -0.024,0.19533 -0.1194,0.22428 l -0.2248,0.0687 c -0.095,0.0289 -0.1474,0.12936 -0.1178,0.22376 l 0.1798,0.57464 c 0.03,0.0964 0.1302,0.1528 0.2284,0.12919 l 0.2186,-0.0527 c 0.098,-0.0236 0.1981,0.0333 0.2279,0.12971 l 1.3751,4.45399 c 0.064,0.20752 0.2852,0.32264 0.4925,0.25786 l 0.3891,-0.12143 c 0.2101,-0.0657 0.3322,-0.28479 0.276,-0.49765 l -1.1576,-4.37751 c -0.025,-0.097 0.03,-0.19661 0.1266,-0.22583 l 0.4207,-0.12867 c 0.095,-0.0291 0.1501,-0.12879 0.123,-0.22479 l -0.1571,-0.55759 c -0.027,-0.0955 -0.1261,-0.1511 -0.2217,-0.12454 l -0.5571,0.15451 c -0.095,0.0264 -0.1938,-0.0296 -0.2191,-0.12506 l -0.098,-0.36948 c -0.025,-0.0934 0.035,-0.18819 0.1308,-0.20516 l 4.7676,-0.85214 c 0.2315,-0.0414 0.3795,-0.26927 0.3235,-0.49765 l -0.03,-0.12299 c -0.051,-0.20754 -0.2349,-0.34941 -0.4414,-0.35295 z m 3.3197,1.3994 c -2.0741,0.003 -4.568,0.30088 -6.3804,0.7028 -0.1479,0.0328 -0.2835,0.1931 -0.277,0.35554 0.01,0.17333 0.034,0.34429 0.078,0.4842 l 5e-4,-0.003 c 0.053,0.15966 0.2432,0.23935 0.3969,0.20361 1.0773,-0.34736 4.327,-0.81158 6.3913,-0.70745 0.1568,0.008 0.2945,0.14161 0.3075,0.31057 l 0.039,0.50592 c 0.021,0.26817 -0.2284,0.4095 -0.4599,0.20928 -0.6208,-0.53685 -2.1621,-1.04254 -2.4557,0.39843 -2.2142,-1.05168 -3.7601,0.43149 -3.6447,1.98954 0.141,1.90227 2.0611,2.16388 3.532,1.757 0.1829,-0.0445 0.298,-0.26741 0.262,-0.41341 l -0.073,-0.52038 c -0.024,-0.16731 -0.1689,-0.22177 -0.3137,-0.15606 -1.0962,0.43717 -2.3284,0.50416 -2.2624,-0.83871 0.071,-1.45248 1.8504,-1.43763 2.7833,-0.12661 0.096,0.1345 0.2893,0.29569 0.446,0.29507 0.1807,-0.001 0.389,-0.0547 0.5353,-0.22272 0.1066,-0.12299 0.052,-0.36548 -0.026,-0.51263 -0.6197,-1.24448 1.2499,-1.32654 1.5244,0.14986 l 0.245,1.84071 c 0.022,0.16758 0.1325,0.42964 0.2796,0.48059 0.1916,0.0663 0.4375,0.0149 0.6232,-0.12299 0.1285,-0.0953 0.1886,-0.35719 0.1834,-0.52658 l -0.1271,-4.09226 c -0.01,-0.16721 0.1183,-0.30518 0.2734,-0.30334 l 0.033,0.004 c 0.1557,0.001 0.2818,-0.13593 0.278,-0.30386 l -0.01,-0.38706 c -0.01,-0.1697 -0.1329,-0.32776 -0.2894,-0.34778 -0.5573,-0.0714 -1.2021,-0.10334 -1.8935,-0.10232 z m 13.9057,0.91416 c -0.321,0.01 -0.6214,0.21385 -0.7359,0.54105 l -0.2258,0.64596 c -0.033,0.0936 -0.1346,0.14321 -0.2285,0.11058 l -0.2222,-0.0775 c -0.094,-0.0327 -0.196,0.0172 -0.2273,0.1111 l -0.1809,0.54157 c -0.032,0.0958 0.011,0.21177 0.108,0.23926 l 0.202,0.0568 c 0.097,0.0275 0.1377,0.14243 0.1075,0.23874 l -1.2283,3.91708 c -0.065,0.2074 0.04,0.4288 0.2455,0.49867 l 0.3855,0.13126 c 0.2084,0.0708 0.4448,-0.0311 0.5167,-0.23926 l 1.2992,-3.76308 c 0.037,-0.0931 0.14,-0.1401 0.2356,-0.108 l 0.1959,0.0656 c 0.094,0.0316 0.1936,-0.017 0.232,-0.10904 l 0.2067,-0.49454 c 0.038,-0.092 -0.016,-0.19452 -0.1059,-0.23151 l -0.2605,-0.10697 c -0.091,-0.0375 -0.1385,-0.13842 -0.1023,-0.23048 l 0.1385,-0.35605 c 0.035,-0.0902 0.139,-0.13154 0.2263,-0.0889 l 4.3533,2.12338 c 0.2114,0.10306 0.4655,0.006 0.555,-0.21136 l 0.048,-0.11679 c 0.094,-0.22578 2e-4,-0.48505 -0.2248,-0.59221 l -5e-4,-5.1e-4 -4.9366,-2.41329 c -0.1219,-0.0596 -0.2507,-0.0855 -0.3762,-0.0816 z m -3.944,0.41651 c -0.071,5.1e-4 -0.105,0.0196 -0.1225,0.0475 -0.086,0.13842 -0.1902,0.45194 -0.1907,0.63149 -2e-4,0.0659 0.052,0.12526 0.1148,0.14676 l 0.1715,0.0584 c 0.065,0.0154 0.106,0.0805 0.091,0.14573 l -1.0904,4.18786 c -0.015,0.0646 0.013,0.14883 0.063,0.19637 0.2322,0.22263 0.6758,0.34151 0.9301,0.25631 0.064,-0.0212 0.1318,-0.0788 0.1478,-0.14262 l 1.2335,-4.05454 c 0.016,-0.0611 0.082,-0.0945 0.1411,-0.0703 l 0.1194,0.0491 c 0.06,0.0247 0.1188,-0.011 0.1478,-0.0687 0.113,-0.22365 0.17,-0.41847 0.202,-0.60823 0.011,-0.0655 -0.011,-0.1394 -0.07,-0.1664 -0.4171,-0.19241 -1.2074,-0.4501 -1.5415,-0.54415 -0.1671,-0.047 -0.2757,-0.0651 -0.3468,-0.0646 z m -24.2621,0.29507 a 0.46318665,0.46318665 0 0 0 -0.1891,0.0579 l -4.793,2.68769 a 0.8036055,0.8036055 0 0 0 -0.2548,1.17616 l 0.3861,0.52658 a 0.17928355,0.17928355 0 0 1 -0.039,0.25063 l -0.1897,0.13901 a 0.17822589,0.17822589 0 0 0 -0.038,0.25011 l 0.3592,0.48318 a 0.19198109,0.19198109 0 0 0 0.2578,0.047 l 0.1892,-0.12144 a 0.19174384,0.19174384 0 0 1 0.2578,0.047 l 2.434,3.28662 a 0.39304914,0.39304914 0 0 0 0.5503,0.0822 l 0.3271,-0.24288 a 0.41237094,0.41237094 0 0 0 0.097,-0.56069 l -2.2025,-3.28611 a 0.18690353,0.18690353 0 0 1 0.045,-0.25528 l 0.355,-0.25941 a 0.18328788,0.18328788 0 0 0 0.042,-0.25322 l -0.3318,-0.47439 a 0.18014555,0.18014555 0 0 0 -0.2501,-0.045 l -0.4754,0.32918 a 0.17737509,0.17737509 0 0 1 -0.2481,-0.046 l -0.2139,-0.31678 a 0.16523442,0.16523442 0 0 1 0.056,-0.23667 l 4.222,-2.37247 a 0.40733208,0.40733208 0 0 0 0.1421,-0.57722 l -0.069,-0.10594 a 0.46318665,0.46318665 0 0 0 -0.4258,-0.20981 z m 4.0608,0.12299 v 5.2e-4 c -0.022,-0.001 -0.045,7.5e-4 -0.066,0.008 -2.0414,0.6716 -4.4233,1.67338 -6.3045,2.87941 h -5e-4 c -0.112,0.072 -0.1508,0.22715 -0.088,0.34468 l 0.4816,0.89556 c 0.3011,0.5594 0.9755,0.72849 1.5286,0.41651 0.2296,-0.12951 0.3491,-0.184 0.4801,-0.2465 0.6434,-0.30672 1.1067,-0.42669 1.372,-0.16898 0.043,0.0419 0.026,0.10367 -0.029,0.12867 -0.4886,0.22314 -0.9981,0.44217 -1.5317,0.7705 -0.5243,0.32256 -0.6555,1.09251 -0.354,1.62987 l 0.2935,0.52297 c 0.38,0.67709 1.2286,0.93034 1.9177,0.57257 l 0.9736,-0.50539 c 0.1583,-0.0833 0.2292,-0.27614 0.1582,-0.44235 l -0.168,-0.39274 c -0.068,-0.15804 -0.2572,-0.22348 -0.4082,-0.14108 l -0.8222,0.40773 c -0.094,0.0466 -0.2367,0.0406 -0.309,-0.0357 -0.1695,-0.17904 -0.3063,-0.40671 -0.2982,-0.65164 0,-0.10523 0.068,-0.24021 0.1545,-0.29921 0.897,-0.60845 1.7782,-0.92464 2.6851,-1.1963 0.1696,-0.0508 0.3813,0.0325 0.4723,0.18448 l 0.6982,1.17874 c 0.1121,0.18924 0.3562,0.25278 0.5472,0.14366 l 0.2946,-0.16847 c 0.1957,-0.11176 0.2755,-0.35312 0.1855,-0.55965 l -1.7715,-4.06539 c -0.037,-0.0848 0,-0.18372 0.077,-0.22892 l 0.1876,-0.10542 c 0.08,-0.0447 0.1106,-0.14361 0.07,-0.22531 l -0.2656,-0.54674 c -0.03,-0.0605 -0.094,-0.0998 -0.1607,-0.10387 z m -1.2806,1.42834 c 0.1845,-0.005 0.3404,0.0856 0.4284,0.2775 l 0.6992,1.52394 c 0.071,0.15403 -1e-4,0.33584 -0.1561,0.40204 l -0.7513,0.31936 c -0.1598,0.0679 -0.3447,-8.3e-4 -0.4217,-0.15658 l -0.094,-0.1912 c -0.3179,-0.64519 -1.0843,-0.87595 -1.7554,-0.60203 -0.3184,0.12996 -0.6252,0.27841 -0.9312,0.45062 -0.2574,0.14486 -0.5742,0.0579 -0.7127,-0.20309 l -0.025,-0.047 c -0.016,-0.0293 -0.01,-0.0675 0.023,-0.0853 h 5e-4 c 1.079,-0.67944 2.6853,-1.36949 3.5037,-1.65106 0.066,-0.0228 0.1312,-0.0355 0.1927,-0.0372 z m 26.7731,0.13539 c -0.086,-0.001 -0.1757,0.0428 -0.2254,0.11317 -0.099,0.14156 -0.183,0.2687 -0.2547,0.54312 -0.029,0.11151 2e-4,0.22728 0.1013,0.27337 1.223,0.56973 1.7162,0.79127 4.8772,2.64377 0.099,0.0583 0.089,0.081 -0.021,0.0506 l -5.0204,-1.52549 c -0.1197,-0.0328 -0.2466,0.0169 -0.3126,0.12196 l -0.7379,1.25367 c -0.062,0.10517 -0.05,0.23748 0.035,0.32453 1.173,0.91499 2.7016,2.69022 4.069,4.26847 0.2264,0.22978 0.5896,0.25211 0.8423,0.0517 v -5.2e-4 c 0.06,-0.048 0.1055,-0.11076 0.1509,-0.17312 l 2.2598,-3.10265 c 0.059,-0.10002 0.1871,-0.13514 0.2889,-0.0791 l 0.2651,0.14625 c 0.1011,0.0555 0.2245,0.0174 0.2847,-0.0811 l 0.2615,-0.4284 c 0.056,-0.10026 0.026,-0.23581 -0.068,-0.30179 -2.1751,-1.62757 -4.7033,-3.22732 -6.7122,-4.08141 -0.027,-0.0112 -0.055,-0.0166 -0.084,-0.0171 z m -0.1468,3.27319 c 0.01,-2.1e-4 0.012,2.9e-4 0.019,0.002 l 4.1548,1.43505 c 0.1483,0.0296 0.2224,0.19716 0.1442,0.3266 l -1.1938,1.62419 c -0.01,0.0135 -0.017,0.0262 -0.028,0.0377 v -5.2e-4 c -0.092,0.0986 -0.2494,0.0967 -0.3385,-0.005 -0.9239,-1.22285 -1.8929,-2.24331 -2.8789,-3.18688 -0.063,-0.0711 0.029,-0.22997 0.1225,-0.23306 z m -36.4531,1.26969 c -0.068,0.005 -0.1295,0.0304 -0.1772,0.0822 l -1.0279,1.1157 a 0.30094937,0.30094937 0 0 0 0.025,0.43201 l 0.2553,0.21911 c 0.093,0.0801 0.069,0.15257 -0.052,0.17363 -1.0034,0.17414 -1.7057,0.93131 -1.8707,2.14509 -0.016,0.1217 -0.1228,0.23046 -0.2444,0.24598 -1.0512,0.13416 -1.9579,0.50524 -2.5487,1.39578 -0.083,0.12536 -0.033,0.28968 0.1003,0.35967 l 0.493,0.25941 c 0.1332,0.07 0.2914,0.0147 0.3705,-0.11317 0.4635,-0.74948 1.1135,-0.74592 1.6542,-0.54518 0.5829,0.21647 1.03,1.21136 0.1431,1.47122 -0.1377,0.0404 -0.2645,0.16708 -0.2444,0.30955 0.034,0.244 0.1365,0.50776 0.3209,0.65784 0.1103,0.0898 0.3492,0.10842 0.4909,0.0847 0.9977,-0.1667 1.3701,-0.99949 1.3028,-1.83503 -0.01,-0.1189 0.069,-0.19832 0.1876,-0.18811 1.1943,0.1027 1.6004,-0.59915 1.7399,-1.00304 0.028,-0.0823 0.035,-0.22306 -0.01,-0.2992 -0.082,-0.1521 -0.2532,-0.31063 -0.4796,-0.38602 -0.082,-0.0275 -0.1894,0.025 -0.2449,0.092 -0.3639,0.43835 -1.0702,0.59834 -1.4134,0.12557 -0.824,-1.13538 0.5604,-2.05871 1.6103,-1.43195 l 2.3854,2.02313 c 0.3521,0.29856 1.1163,-0.54709 0.787,-0.88263 l -3.0655,-3.12384 a 0.2054762,0.2054762 0 0 1 -0.011,-0.27595 l 0.1736,-0.20774 c 0.2854,-0.34251 -0.2847,-0.92589 -0.6532,-0.90072 z m 36.3642,1.12964 c -0.098,10e-4 -0.1941,0.0258 -0.2852,0.078 -0.9675,0.55506 0.2815,1.91169 0.9777,1.71049 1.0012,-0.28938 0.1043,-1.79937 -0.6925,-1.78852 z m 8.0931,0.81494 c -0.158,-2.7e-4 -0.3165,0.0662 -0.4465,0.23048 l -1.172,1.48104 c -0.1857,0.23469 -0.3675,0.66629 -0.3783,0.96532 -0.02,0.54802 -3e-4,1.00264 0.186,1.43144 0.2967,0.70075 1.599,1.35602 2.2061,2.24947 0.2984,0.43918 0.2482,0.91696 0.1504,1.39733 -0.031,0.15414 0.028,0.37169 0.1364,0.48679 l 0.2361,0.25219 c 0.1107,0.1178 0.2937,0.13105 0.4202,0.0305 l 3.6489,-2.89956 c 0.2297,-0.18266 0.3721,-0.45336 0.3927,-0.74621 l 0.026,-0.37103 c 0.018,-0.25384 -0.1034,-0.61469 -0.2733,-0.80409 -1.0109,-1.12669 -2.1244,-2.16726 -3.7114,-1.64021 -0.61,0.2548 -1.2379,0.94035 -0.9111,1.95182 0.2025,0.62657 0.7991,0.88282 1.2568,0.7276 0.5482,-0.18593 0.6702,-0.76429 0.1328,-1.13223 -0.1,-0.0684 -0.1256,-0.18289 -0.028,-0.25476 0.6352,-0.46927 1.4284,0.0543 2.0138,0.54622 0.3421,0.28744 0.353,0.77073 0,1.0511 l -1.7286,1.39113 c -0.1493,0.12019 -0.3287,0.0738 -0.4097,-0.0997 -0.3639,-0.7791 -1.0846,-1.5615 -2.1131,-2.19625 -0.7323,-0.45192 -0.4048,-1.44393 0.029,-1.9513 l 0.9592,-1.11828 c 0.3203,-0.37498 -0.1488,-0.97793 -0.6227,-0.97875 z m -50.5866,4.69429 c -0.055,8.2e-4 -0.1118,0.0302 -0.1411,0.0744 -0.8118,1.22048 -2.0372,3.33112 -2.7109,4.9227 v 5.2e-4 c -0.028,0.0659 0,0.14556 0.066,0.17776 l 0.5271,0.2651 c 0.065,0.0326 0.1433,0.009 0.1793,-0.0543 l 0.054,-0.0961 c 0.035,-0.0622 0.1137,-0.0839 0.1757,-0.0481 l 2.4252,1.40457 c 0.428,0.24789 0.9102,-0.2037 0.8832,-0.84956 l -0.1318,-3.11764 c 0,-0.0716 0.034,-0.0867 0.084,-0.0357 1.4501,1.47725 3.2358,1.24572 4.1191,1.04852 0.07,-0.0156 0.096,-0.0956 0.1117,-0.15813 0.061,-0.23726 0.01,-0.50323 -0.082,-0.73019 -0.026,-0.0664 -0.068,-0.10552 -0.1359,-0.0837 -0.9402,0.30096 -2.8987,-0.12238 -3.8003,-1.61695 -0.037,-0.0614 -0.1179,-0.089 -0.1819,-0.0584 -0.5087,0.24144 -0.9522,0.55609 -1.1777,1.11415 -0.026,0.0664 -0.044,0.18006 -0.044,0.25166 v 2.6386 c 0,0.0577 -0.062,0.0935 -0.1121,0.0646 l -1.4253,-0.82476 c -0.066,-0.0359 -0.087,-0.11718 -0.056,-0.18138 0.6784,-1.40281 1.2889,-2.34812 2.0402,-3.48041 0.039,-0.0597 0.034,-0.15241 -0.016,-0.20361 -0.1682,-0.17242 -0.3766,-0.32694 -0.5969,-0.41444 -0.017,-0.007 -0.035,-0.01 -0.053,-0.009 z m 56.7392,0.68264 c -0.047,0.002 -0.094,0.0193 -0.1349,0.0517 l -0.4599,0.36277 c -0.1096,0.0864 -0.1313,0.24736 -0.051,0.3607 0.7969,1.11996 1.7349,2.71627 2.327,3.82457 0.066,0.12304 0.038,0.14396 -0.062,0.046 l -2.8711,-2.83238 c -0.099,-0.098 -0.2802,-0.12558 -0.4031,-0.06 -0.5163,0.27563 -1.0345,0.59012 -1.5715,1.27951 -0.086,0.11005 -0.093,0.29974 -0.029,0.42375 0.611,1.18875 0.8287,2.81302 0.7286,4.14083 -0.011,0.1391 0.037,0.34781 0.1106,0.46612 l 0.2176,0.3483 a 0.26487554,0.26487554 0 0 0 0.3539,0.0909 l 2.7069,-1.5167 c 0.1215,-0.0682 0.2891,-0.0337 0.3607,0.0858 0.3552,0.59319 0.5484,1.45595 0.1984,1.94562 -0.081,0.11302 -0.2671,0.25549 -0.401,0.29249 -0.3984,0.11004 -0.6711,-0.29107 -0.3101,-0.53744 0.1148,-0.0783 0.2502,-0.21761 0.2419,-0.35656 -0.01,-0.12368 -0.038,-0.23347 -0.094,-0.32711 -0.072,-0.1186 -0.2843,-0.16763 -0.4196,-0.13385 -0.4681,0.11689 -0.9447,0.39096 -1.0278,1.01338 -0.019,0.13811 -0.011,0.36561 0.014,0.50281 0.1579,0.87369 0.9828,1.08621 1.6133,0.96273 0.1368,-0.0268 0.3504,-0.10583 0.4744,-0.1695 1.0246,-0.52593 1.4042,-1.81538 1.0641,-3.46387 -0.028,-0.13661 -0.016,-0.14015 0.032,-0.009 l 0.8072,2.18436 a 0.26164413,0.26164413 0 0 0 0.3271,0.15813 l 0.6547,-0.216 c 0.1325,-0.0437 0.2039,-0.18656 0.1582,-0.31833 -1.0474,-3.0177 -2.5755,-5.81323 -4.3527,-8.49406 -0.048,-0.0727 -0.1257,-0.10929 -0.2036,-0.10542 z m -1.6051,3.24218 c 0.045,6.5e-4 0.1101,0.0286 0.1462,0.0553 0.8345,0.61779 1.5443,1.40666 2.1673,2.3151 0.066,0.0956 0.037,0.22184 -0.064,0.2806 l -1.9064,1.12035 c -0.1,0.0588 -0.1839,0.0125 -0.1886,-0.10335 -0.046,-1.15172 -0.1524,-2.28178 -0.493,-3.32642 -0.014,-0.0427 -0.012,-0.11102 0.011,-0.14986 0.085,-0.14615 0.2022,-0.19351 0.3271,-0.19172 z m -58.1096,1.56942 c -0.046,0.004 -0.093,0.0302 -0.1168,0.0672 -0.4196,0.65784 -0.8329,1.63027 -1.156,2.57141 -0.019,0.0558 0.01,0.11875 0.065,0.14056 l 0.7875,0.31368 a 0.10032262,0.10032262 0 0 0 0.1323,-0.062 l 0.122,-0.37156 c 0.018,-0.056 0.062,-0.0629 0.098,-0.0165 2.4289,3.10024 5.5116,1.21738 6.0519,-0.29456 0.02,-0.0555 0,-0.13377 -0.046,-0.17363 l -0.5959,-0.54674 c -0.1469,-0.13478 -0.2757,-0.0771 -0.3591,0.10284 -0.6402,1.3807 -4.2951,2.3319 -4.4028,-1.39733 0,-0.059 -0.045,-0.12799 -0.098,-0.15348 -0.1506,-0.0725 -0.2894,-0.13449 -0.4372,-0.17622 -0.014,-0.004 -0.03,-0.005 -0.045,-0.004 z m -1.3338,3.12539 c -0.049,3.8e-4 -0.098,0.0266 -0.1209,0.0703 -0.213,0.40697 -0.4959,1.16598 -0.6615,1.80247 -0.017,0.0641 0.02,0.13588 0.083,0.15813 0.1758,0.0628 0.4252,0.14112 0.6738,0.21342 0.064,0.0185 0.1305,-0.0182 0.1494,-0.0816 l 0.042,-0.14056 a 0.12213769,0.12213769 0 0 1 0.1499,-0.0827 l 4.1481,1.15187 c 0.064,0.0177 0.155,-0.004 0.1989,-0.0537 0.2121,-0.23925 0.3184,-0.54395 0.2646,-0.9307 -0.01,-0.0655 -0.072,-0.1339 -0.1349,-0.15399 l -3.9754,-1.26607 a 0.10476798,0.10476798 0 0 1 -0.063,-0.1447 l 0.055,-0.11679 a 0.11068169,0.11068169 0 0 0 -0.06,-0.15089 l -0.6997,-0.26562 c -0.015,-0.006 -0.032,-0.009 -0.049,-0.009 z m 65.5696,1.41903 c -0.1699,0.006 -0.4603,0.0891 -0.6025,0.17932 -0.056,0.0353 -0.1194,0.0981 -0.1349,0.16846 -0.026,0.11879 0.087,0.3545 0.087,0.3545 0.022,0.0631 -0.01,0.13254 -0.073,0.15503 l -4.1207,1.3193 c -0.062,0.0221 -0.1179,0.0912 -0.1313,0.15865 -0.063,0.31552 0.076,0.75348 0.2848,0.92191 0.053,0.0425 0.1374,0.0683 0.1999,0.0475 l 4.13,-1.15187 c 0.06,-0.0194 0.1238,0.0186 0.1354,0.0816 l 0.089,0.25115 c 0.012,0.0639 0.073,0.0939 0.1375,0.0873 0.2493,-0.0252 0.444,-0.0824 0.6211,-0.15761 0.061,-0.026 0.1118,-0.084 0.1028,-0.14831 -0.02,-0.43317 -0.314,-1.77157 -0.5513,-2.16163 -0.041,-0.0677 -0.085,-0.10372 -0.1411,-0.10542 -0.01,-3.1e-4 -0.021,-3.9e-4 -0.033,0 z m -66.2921,1.00717 c -0.1473,10e-4 -0.2934,0.0986 -0.3405,0.23927 -0.767,2.29026 -1.2178,6.18541 -1.2221,8.84183 -3e-4,0.1626 0.127,0.33772 0.2873,0.36432 0.1701,0.0282 0.3423,0.0348 0.4883,0.0171 0.1676,-0.0225 0.2871,-0.20734 0.2858,-0.37672 -0.01,-1.198 0.2348,-4.58689 0.6909,-6.74791 0.035,-0.16527 0.2024,-0.28201 0.3705,-0.26097 l 0.5033,0.0631 c 0.1681,0.021 0.2085,0.13742 0.1112,0.27595 -0.5391,0.76755 -0.4693,1.75609 0.089,2.34611 -1.784,2.10989 -0.7941,4.01559 0.3917,4.34289 1.8383,0.50742 2.5495,-1.4023 2.4986,-2.6324 -0.01,-0.16914 -0.168,-0.30309 -0.3374,-0.30076 l -0.5928,0.008 c -0.1694,0.002 -0.2538,0.13264 -0.2212,0.29869 0.1392,0.70981 -0.1866,1.41357 -0.9865,1.1281 -0.8281,-0.29565 -0.6668,-1.71374 0.9834,-2.50682 0.1525,-0.0733 0.3524,-0.24449 0.3861,-0.4098 0.039,-0.19047 0.032,-0.4212 -0.1003,-0.60978 -0.097,-0.13751 -0.3464,-0.13047 -0.5074,-0.0786 -1.1444,0.36884 -1.2229,-1.44167 0.233,-1.42162 l 1.4749,0.0202 c 0.1694,0.002 0.4492,-0.0514 0.5312,-0.19586 0.1069,-0.18841 0.1103,-0.45832 0.016,-0.68213 -0.065,-0.15493 -0.3078,-0.2735 -0.4749,-0.30127 l -3.6509,-0.60616 c -0.1646,-0.0273 -0.2729,-0.18739 -0.2372,-0.35037 l 0.01,-0.0326 c 0.036,-0.1639 -0.071,-0.32503 -0.2357,-0.35553 l -0.3808,-0.0703 c -0.021,-0.004 -0.042,-0.006 -0.063,-0.006 z m 66.9949,1.85674 c -0.2178,-5.5e-4 -0.4562,0.0562 -0.6589,0.14263 -0.053,0.0226 -0.095,0.0638 -0.083,0.1204 l 0.1441,0.83354 c 0.013,0.0571 -0.021,0.0843 -0.076,0.0641 -4.2158,-1.54 -5.7738,1.56498 -5.1175,3.90829 0.011,0.058 0.07,0.11391 0.1272,0.12661 0.501,0.15568 0.8241,0.0322 0.9141,-0.004 0.1578,-0.061 0.2136,-0.1204 0.1576,-0.31213 -0.8466,-2.89788 2.4836,-4.02997 4.0504,-1.89239 0.2043,0.27871 0.3103,0.67227 0.4419,1.10691 0.032,0.0498 0.1027,0.0877 0.1617,0.0827 0.1666,-0.0135 0.318,-0.0301 0.4666,-0.0687 0.057,-0.0148 0.098,-0.0779 0.1075,-0.13643 v 5.2e-4 c 0.041,-0.79162 -0.3123,-3.47216 -0.4526,-3.85041 0,0 -0.011,-0.11593 -0.1365,-0.12093 -0.014,-5.5e-4 -0.029,-9.9e-4 -0.043,-10e-4 z m -0.9989,4.53926 c -0.017,7.5e-4 -0.033,0.002 -0.049,0.005 -1.5134,0.27651 -5.3599,1.63887 -4.1945,5.81412 0.6781,2.42918 2.9847,2.53669 4.0416,1.98644 0.1095,-0.0568 0.1927,-0.21532 0.1927,-0.33848 l 0.01,-0.85214 c 0,-0.14507 -0.042,-0.28701 -0.1251,-0.40618 l -1.0201,-1.46916 c -0.055,-0.0785 10e-5,-0.1861 0.096,-0.1881 l 1.6883,-0.0372 c 0.1227,-0.003 0.2201,0.0949 0.2201,0.21807 -0.023,1.16349 -0.1453,2.39258 -0.3586,3.8313 -0.018,0.12183 0.066,0.22279 0.1896,0.22479 l 0.4636,0.008 c 0.1161,0.002 0.232,-0.0441 0.263,-0.21394 0.4617,-2.56024 0.515,-6.11097 0.416,-8.20725 -0.01,-0.12302 -0.11,-0.24168 -0.2325,-0.25528 -0.2039,-0.0226 -0.3468,-0.013 -0.5152,0.0248 -0.1199,0.027 -0.2116,0.15663 -0.2016,0.27957 0.039,0.7883 0.06,1.74603 0.039,2.67426 0,0.12313 -0.1054,0.22651 -0.2284,0.23151 l -2.0903,0.0796 c -0.1415,0.005 -0.2738,0.0724 -0.3618,0.18293 l -0.4547,0.56844 c -0.218,0.27256 -0.237,0.65391 -0.047,0.94672 l 0.8424,1.29862 c 0.067,0.10333 0.026,0.2232 -0.096,0.2341 -0.6711,0.06 -1.5713,-0.57751 -1.6924,-1.89084 -0.1004,-2.29794 1.3465,-3.15495 3.4355,-3.63647 0.12,-0.0277 0.2365,-0.14687 0.2465,-0.26924 0.018,-0.22029 0.01,-0.50585 -0.1463,-0.71882 -0.062,-0.0871 -0.2129,-0.13034 -0.3307,-0.12505 z m -61.9538,2.96157 c -0.1223,0.003 -0.2527,0.0764 -0.3132,0.1788 -0.6582,1.11384 -1.1418,2.28148 -1.4955,3.4463 -0.043,0.14007 0.01,0.34303 0.1225,0.43047 0.2146,0.16017 0.4687,0.26807 0.7085,0.3421 0.1397,0.0431 0.2946,-0.0433 0.3415,-0.1819 0.3778,-1.11579 0.7175,-2.25657 1.4837,-3.43907 0.079,-0.12269 0.064,-0.30459 -0.051,-0.39584 -0.2251,-0.17959 -0.4578,-0.29768 -0.7141,-0.37104 -0.026,-0.008 -0.055,-0.0104 -0.083,-0.01 z m -3.9285,0.48628 c -0.021,7e-5 -0.041,3.9e-4 -0.062,0.001 -2.4265,0.0737 -1.9458,4.55218 0,4.55218 2.431,0 2.6983,-4.56219 0.062,-4.55321 z m 0.01,1.24953 c 1.0818,-0.004 0.9724,1.97094 -0.025,1.97094 -0.7986,0 -0.9959,-1.93852 0,-1.97042 0.01,-2.8e-4 0.017,-4.8e-4 0.025,-5.2e-4 z m 4.4281,3.16415 c -0.014,-5e-5 -0.028,0.001 -0.042,0.005 l -4.1692,1.05472 c -0.069,0.0174 -0.1388,-0.0289 -0.1494,-0.0997 l -0.028,-0.18758 c -0.011,-0.0715 -0.08,-0.11643 -0.1504,-0.10335 l -0.8216,0.15347 c -0.1462,0.0273 -0.1255,0.0888 -0.122,0.42323 0,0.34729 0.1334,1.0373 0.3892,1.79473 0.017,0.0713 0.089,0.11116 0.1591,0.0894 l 0.7902,-0.23565 c 0.072,-0.0224 0.116,-0.0958 0.1007,-0.17001 l -0.035,-0.1695 c -0.015,-0.0734 0.03,-0.14614 0.1023,-0.16537 l 4.2359,-1.13481 c 0.071,-0.0189 0.1449,-0.092 0.152,-0.16537 0.033,-0.33884 -0.1059,-0.76026 -0.2496,-1.00562 -0.03,-0.0516 -0.099,-0.083 -0.1618,-0.0832 z m 57.4094,1.19631 c -0.199,-0.009 -0.3756,0.13797 -0.4036,0.33952 l -0.056,0.40307 c -0.03,0.21799 0.1155,0.42438 0.3323,0.46251 l 3.9243,0.68988 c 0.098,0.0188 0.1768,0.11337 0.1509,0.21084 l -0.2558,0.96169 c -0.025,0.0958 0.057,0.17291 0.1509,0.20723 l 0.5824,0.2129 c 0.094,0.0343 0.1795,-0.0544 0.2072,-0.14727 l 0.3328,-1.11466 c 0.028,-0.0942 0.1106,-0.16734 0.2067,-0.14418 l 0.3354,0.0806 c 0.094,0.0226 0.1551,0.1119 0.1297,0.20568 l -1.9089,5.43584 c -0.078,0.22182 -1e-4,0.37919 0.2211,0.46405 l 0.2166,0.0842 c 0.087,0.0336 0.4017,0.10607 0.4878,-0.14366 0.7192,-2.08521 1.4169,-4.18366 2.1342,-6.27094 0.1568,-0.45616 -0.1838,-0.93505 -0.6609,-1.00562 l -0.677,-0.0997 c -0.098,-0.0147 -0.1662,-0.10523 -0.1519,-0.2036 l 0.034,-0.23255 c 0.014,-0.0985 -0.054,-0.18902 -0.1519,-0.20205 l -0.5659,-0.076 c -0.1002,-0.0134 -0.2057,0.051 -0.2144,0.15142 l -0.018,0.20877 c -0.01,0.10044 -0.1142,0.166 -0.214,0.15089 l -4.1279,-0.62476 c -0.013,-0.002 -0.026,-0.004 -0.04,-0.004 z m -56.8565,1.35341 a 0.63142862,0.63142862 0 0 0 -0.2273,0.0325 l -3.8535,1.29967 a 0.21502784,0.21502784 0 0 1 -0.2703,-0.12868 l -0.1054,-0.2837 a 0.21067578,0.21067578 0 0 0 -0.2687,-0.12454 l -0.63,0.22686 c -0.1083,0.039 -0.1736,0.16139 -0.1452,0.27285 0.7682,3.01256 1.7212,5.01601 2.6846,6.97477 0.051,0.1033 0.1772,0.14862 0.2821,0.10128 l 0.6052,-0.27285 c 0.1049,-0.0473 0.1511,-0.17002 0.1018,-0.27337 -0.548,-1.14855 -0.8621,-1.44457 -2.0459,-4.91184 -0.037,-0.10895 -0.015,-0.11974 0.049,-0.0243 l 2.8422,4.21421 a 0.28153315,0.28153315 0 0 0 0.3163,0.11214 l 1.4722,-0.45113 a 0.26329917,0.26329917 0 0 0 0.1855,-0.26872 l -0.3886,-5.9061 a 0.63142862,0.63142862 0 0 0 -0.6041,-0.58911 z m 56.2209,1.0852 c -0.5745,0.0135 -1.1068,0.3728 -1.3162,0.94206 l -0.3793,1.0294 c -0.06,0.16814 0.021,0.35785 0.1814,0.43305 l 0.3886,0.17725 c 0.1567,0.0709 0.3408,-0.009 0.3969,-0.17105 l 0.3328,-0.85525 c 0.038,-0.0978 0.1474,-0.18955 0.2521,-0.1819 0.246,0.0185 0.5004,0.0942 0.6594,0.28061 0.071,0.0778 0.1126,0.22356 0.088,0.32556 -0.2529,1.05402 -0.8549,2.0681 -1.342,2.87992 -0.09,0.15185 -0.3037,0.23339 -0.4734,0.18242 l -1.31,-0.40049 c -0.2103,-0.0643 -0.4339,0.053 -0.5013,0.26252 l -0.1038,0.32297 c -0.069,0.21476 0.033,0.45327 0.2403,0.53847 l 4.1418,1.70584 c 0.084,0.0378 0.1235,0.13537 0.097,0.22066 l -0.067,0.20464 c -0.03,0.0869 0.027,0.15565 0.1008,0.21342 0.1296,0.1012 0.2441,0.1757 0.4289,0.20826 0.1241,0.0219 0.2558,0.0108 0.3173,-0.0992 1.0353,-1.85365 2.2804,-4.34171 2.8375,-6.42493 h 6e-4 c 0.034,-0.12868 -0.042,-0.26974 -0.167,-0.31419 l -0.9596,-0.33693 c -0.5994,-0.21043 -1.2116,0.11866 -1.4102,0.72192 -0.082,0.25038 -0.1341,0.37145 -0.1887,0.50591 -0.2687,0.66017 -0.5299,1.06069 -0.8996,1.04903 -0.06,-0.002 -0.09,-0.0587 -0.066,-0.11421 0.2107,-0.49411 0.4398,-0.99932 0.6129,-1.60145 0.1701,-0.59165 -0.2517,-1.2489 -0.8366,-1.4428 l -0.5695,-0.18862 c -0.1613,-0.0534 -0.3254,-0.0766 -0.4863,-0.0729 z m -56.6803,0.18707 a 0.22815596,0.22815596 0 0 1 0.2527,0.22479 l 0.038,4.10518 a 0.10552709,0.10552709 0 0 1 -0.1886,0.0661 l -2.5694,-3.28973 a 0.21818032,0.21818032 0 0 1 0.1044,-0.34158 l 2.3166,-0.75499 a 0.22815596,0.22815596 0 0 1 0.046,-0.01 z m 60.2201,2.24999 c 0.052,0.002 0.1045,0.0124 0.1566,0.031 l 0.05,0.0176 c 0.032,0.0114 0.053,0.0433 0.041,0.0786 l -5e-4,5.1e-4 c -0.3395,1.22909 -1.0609,2.82117 -1.4759,3.58066 -0.034,0.0614 -0.074,0.11443 -0.1173,0.1571 h -6e-4 c -0.1329,0.12803 -0.309,0.16625 -0.5033,0.0837 l -1.5436,-0.65474 c -0.1562,-0.0659 -0.2262,-0.24852 -0.1555,-0.40256 l 0.34,-0.74208 c 0.072,-0.15783 0.2554,-0.23163 0.4171,-0.16846 l 0.1979,0.078 c 0.6696,0.26253 1.3918,-0.0837 1.7032,-0.73794 0.1477,-0.31057 0.274,-0.62722 0.384,-0.96067 0.076,-0.22785 0.2828,-0.36912 0.5069,-0.3607 z" />
        <path
           d="m 2376.6796,282.12813 c 0,-15.20645 12.3273,-27.53379 27.5338,-27.53379 15.2065,0 27.5338,12.32734 27.5338,27.53379 0,15.20644 -12.3273,27.53378 -27.5338,27.53378 -15.2065,0 -27.5338,-12.32734 -27.5338,-27.53378 z"
           fill="#4472c4"
           fill-rule="evenodd"
           id="path1209"
           style="fill:#ee1c25;fill-opacity:1;stroke:none;stroke-width:0.114724;stroke-opacity:1" />
        <path
           id="path17692"
           style="font-variation-settings:normal;fill:#f8d009;fill-opacity:1;stroke:none;stroke-width:0.1;stroke-linecap:butt;stroke-linejoin:miter;stroke-miterlimit:4;stroke-dasharray:none;stroke-dashoffset:0;stroke-opacity:1;stop-color:#000000"
           d="m 2395.5859,310.06394 c -0.5964,-0.0113 -1.5872,0.63173 -1.0523,1.64953 0.6216,1.18271 2.7149,2.90171 0.6915,4.01761 -0.5052,0.27863 -1.5326,0.21498 -1.4892,-0.78368 0.7974,0.0904 1.3705,-0.85502 0.8869,-1.46013 -0.5632,-0.70479 -1.5794,-0.52384 -1.9021,0.65841 -0.5381,1.97119 1.2594,2.46723 1.9061,2.43923 1.8779,-0.0814 2.8651,-2.03594 2.4272,-3.11868 -0.5477,-1.35411 -1.734,-2.40983 -1.4681,-3.40229 z m 16.1185,10e-4 c -0.2432,0.005 -0.4784,0.0614 -0.6925,0.16836 -0.8984,0.44893 -1.2087,1.6498 -0.6925,2.68175 0.217,0.43384 0.5581,0.7872 0.9631,1.00114 0.063,0.0331 0.098,0.11145 0.081,0.18039 -0.1418,0.57816 -0.058,1.22143 0.2376,1.79284 0.625,1.20976 2.004,1.76797 3.0806,1.24667 1.077,-0.52109 1.4428,-1.92476 0.8177,-3.13472 -0.3381,-0.65316 -0.9163,-1.14415 -1.5754,-1.34287 -0.068,-0.0204 -0.1158,-0.0906 -0.1102,-0.16135 0.029,-0.40597 -0.051,-0.8275 -0.2425,-1.20859 -0.3335,-0.66707 -0.9519,-1.12898 -1.6215,-1.21159 h -10e-4 c -0.082,-0.0101 -0.1638,-0.0136 -0.2445,-0.012 z m 0.2235,0.92098 c 0.058,-0.003 0.1165,6.2e-4 0.1753,0.01 0.4123,0.0652 0.7708,0.4223 0.899,0.89491 0.1696,0.62519 -0.1131,1.24622 -0.6314,1.38697 -0.5186,0.14075 -1.077,-0.25257 -1.2467,-0.87788 -0.1695,-0.62517 0.1141,-1.24623 0.6324,-1.38697 0.056,-0.0152 0.1132,-0.0241 0.1714,-0.027 z m -11.5939,0.40386 c -0.8361,-0.0118 -2.1702,1.6673 0.1965,2.68475 2.6524,1.14032 1.3243,2.77895 0.7486,3.12269 0.2964,-0.50206 0.2608,-1.28656 -0.2556,-1.78483 -1.8677,-1.8021 -4.0108,1.98216 -1.7167,2.52241 1.097,0.25833 1.5237,-1.67193 0.3498,-1.93715 1.6047,-0.0333 1.0973,1.79695 0.5241,2.27286 3.1805,0.2079 3.935,-4.08565 0.8649,-5.20113 -0.8783,-0.31912 -0.9386,-0.85149 -0.6324,-1.67359 -0.026,-0.004 -0.052,-0.006 -0.079,-0.006 z m 6.0209,0.2335 c -0.9076,2.3e-4 -1.6513,0.84139 -1.7878,1.97523 -0.1953,1.6218 1.123,3.46028 2.7008,2.32799 0.068,-0.0488 0.1349,-0.0264 0.1513,0.0551 0.2288,1.13244 0.3026,2.06796 0.8588,2.22777 1.0539,0.30279 1.0996,-1.11488 0.5332,-1.06828 l -0.8158,-4.09076 c -0.07,-0.35273 -0.3186,-0.86486 -0.6123,-1.0713 -0.3501,-0.24604 -0.6999,-0.35585 -1.0282,-0.35576 z m -0.1824,1.02019 a 1.333006,1.0640668 76.97402 0 1 1.1094,1.08031 1.333006,1.0640668 76.97402 0 1 -0.7356,1.53829 1.333006,1.0640668 76.97402 0 1 -1.3368,-1.05826 1.333006,1.0640668 76.97402 0 1 0.7355,-1.5393 1.333006,1.0640668 76.97402 0 1 0.2275,-0.021 z m 7.3217,1.03421 c 0.5648,-0.008 1.0694,0.30839 1.3098,0.75161 0.344,0.63421 0.068,1.44279 -0.6043,1.79985 -0.6722,0.35698 -1.4916,0.13021 -1.8299,-0.50708 -0.3383,-0.63717 -0.1539,-1.62495 0.5472,-1.92112 0.1938,-0.0819 0.3889,-0.12059 0.5772,-0.12326 z" />
      </g>
      <g
         id="g23600"
         transform="translate(0,-0.14116545)">
        <g
           id="g11273"
           transform="translate(17.182152,188.45942)"
           style="display:inline">
          <path
             id="path14814"
             style="fill:#f8d009;fill-opacity:1;stroke:none;stroke-width:0.264583px;stroke-linecap:butt;stroke-linejoin:miter;stroke-opacity:1"
             d="m 2375.3482,76.29737 c -1.2309,2.44717 -2.3332,7.92239 2.6326,13.29547 l 10.5095,11.37235 a 0.11692956,0.11692956 0 0 0 0.1654,0.007 l 2.1937,-2.02835 a 0.11693139,0.11693139 0 0 0 0.01,-0.16435 l -11.1218,-12.03477 c -3.0689,-3.32067 -4.1344,-5.9664 -4.3864,-10.44737 z m 15.9762,22.82888 c -0.1071,0.007 -0.238,0.0592 -0.3107,0.12627 l -1.0322,0.95405 -1.0322,0.95404 c -0.083,0.0767 -0.1508,0.23079 -0.1523,0.34374 -0.01,0.64116 0,0.17863 -0.01,0.51209 0,0.2417 0.1887,0.45136 0.4299,0.467 0.3391,0.022 -0.1466,-0.0105 0.5492,0.0351 0.092,0.006 0.2024,0.0767 0.2505,0.15533 0.4686,0.76183 1.1534,1.10933 1.5654,1.25569 0.087,0.0307 0.1666,0.12525 0.1773,0.21646 l 0.084,0.73057 c 0.027,0.24016 0.2446,0.47673 0.4861,0.47101 0.1973,-0.004 0.4368,-0.0379 0.6694,-0.14131 0.1033,-0.046 0.2477,-0.0334 0.3377,0.0351 0.1782,0.13541 0.4228,0.27875 0.6574,0.31066 0.077,0.0107 0.1865,-0.0385 0.2435,-0.0912 l 0.3237,-0.29864 0.3227,-0.29864 c 0.057,-0.053 0.1148,-0.15841 0.1103,-0.23551 -0.013,-0.23654 -0.1366,-0.4921 -0.2576,-0.68045 -0.062,-0.0947 -0.062,-0.23931 -0.01,-0.33873 0.1214,-0.22372 0.1734,-0.46101 0.1934,-0.65741 0.025,-0.24018 -0.1935,-0.47406 -0.4309,-0.52011 l -0.7226,-0.1403 c -0.091,-0.0172 -0.1787,-0.10539 -0.2024,-0.19442 -0.1134,-0.42228 -0.4057,-1.13249 -1.1284,-1.65955 -0.074,-0.0542 -0.1363,-0.16973 -0.1353,-0.26156 0.01,-0.69719 0,-0.21041 0.01,-0.55018 0,-0.24168 -0.1897,-0.45033 -0.4309,-0.466 -0.3328,-0.0216 0.129,0.008 -0.5111,-0.0331 -0.014,-8.7e-4 -0.029,-0.001 -0.044,0 z" />
          <path
             id="path14862"
             style="fill:#f8d009;fill-opacity:1;stroke:none;stroke-width:0.264583px;stroke-linecap:butt;stroke-linejoin:miter;stroke-opacity:1"
             d="m 2398.7142,76.29737 c -0.252,4.48097 -1.3175,7.1267 -4.3864,10.44737 l -7.2284,7.82175 2.1947,2.37509 6.7915,-7.34874 c 4.9657,-5.37308 3.8625,-10.84829 2.6316,-13.29547 z m -13.9498,20.79252 -1.5614,1.68862 a 0.11693042,0.11693042 0 0 0 0.01,0.16535 l 2.1937,2.02835 a 0.11693042,0.11693042 0 0 0 0.1654,-0.007 l 1.387,-1.50021 z m -2.0705,2.03636 c -0.6401,0.0414 -0.1783,0.0115 -0.5111,0.0331 -0.2412,0.0157 -0.4309,0.22432 -0.4309,0.466 0.01,0.33977 0,-0.14701 0.01,0.55018 0,0.0918 -0.061,0.20736 -0.1353,0.26156 -0.7227,0.52706 -1.015,1.23727 -1.1284,1.65955 -0.024,0.089 -0.1114,0.17622 -0.2024,0.19342 l -0.7226,0.1413 c -0.2374,0.0461 -0.4559,0.27993 -0.4309,0.52011 0.02,0.1964 0.072,0.43369 0.1934,0.65741 0.053,0.0994 0.052,0.24403 -0.01,0.33873 -0.1209,0.18836 -0.2445,0.44391 -0.2575,0.68045 0,0.0771 0.053,0.18261 0.1102,0.23551 l 0.3227,0.29864 0.3237,0.29864 c 0.057,0.0527 0.1675,0.10189 0.2435,0.0912 0.2347,-0.0319 0.4791,-0.17525 0.6574,-0.31066 0.09,-0.0685 0.2343,-0.0811 0.3377,-0.0351 0.2326,0.10343 0.4732,0.13731 0.6705,0.14131 0.2415,0.006 0.458,-0.23085 0.485,-0.47101 l 0.084,-0.73057 c 0.011,-0.0912 0.09,-0.18576 0.1774,-0.21646 0.412,-0.14636 1.0967,-0.49386 1.5653,-1.25569 0.048,-0.0785 0.1586,-0.14933 0.2506,-0.15533 0.6958,-0.0455 0.21,-0.0131 0.5491,-0.0351 0.2411,-0.0156 0.431,-0.2253 0.431,-0.467 -0.01,-0.33346 -1e-4,0.12907 -0.01,-0.51209 0,-0.11295 -0.07,-0.26704 -0.1533,-0.34374 l -1.0322,-0.95504 -1.0322,-0.95405 c -0.083,-0.0767 -0.2419,-0.13227 -0.3548,-0.12527 z" />
          <path
             id="path8403"
             style="fill:#f8d009;fill-opacity:1;fill-rule:evenodd;stroke:none;stroke-width:0.264583"
             d="m 2387.0312,72.384983 c -0.6936,1.225814 -1.5144,3.504247 -1.5674,6.832653 -0.045,2.851626 0.4427,3.814339 0.9401,4.180945 0.047,0.03448 0.086,0.105278 0.086,0.163354 v 0.493051 c -1e-4,0.176133 0.1435,0.318797 0.3196,0.318691 h 0.072 0.1483 0.1714 0.05 c 0.019,5.3e-5 0.037,-0.0026 0.055,-0.004 0.1525,-0.02678 0.2637,-0.159808 0.2636,-0.314669 v -0.493051 c 0,-0.0581 0.04,-0.128878 0.087,-0.163354 0.4974,-0.366606 0.985,-1.329319 0.94,-4.180945 -0.053,-3.328062 -0.8728,-5.606759 -1.5664,-6.832653 z m -4.3162,3.066573 c -0.035,-2.11e-4 -0.069,0 -0.1043,0 -0.2667,0.0029 -0.5401,0.0217 -0.8197,0.05813 0.5563,1.206712 1.8221,2.331191 3.4875,2.657687 0.045,-0.673179 0.1228,-1.296908 0.2224,-1.871001 -0.7531,-0.553085 -1.7095,-0.838914 -2.7859,-0.84582 z m 8.6324,0 c -1.0765,0.0069 -2.0328,0.292735 -2.7859,0.84582 0.1,0.574093 0.1765,1.197822 0.2225,1.871001 1.6654,-0.326495 2.9311,-1.450974 3.4874,-2.657686 -0.2797,-0.03641 -0.553,-0.05514 -0.8197,-0.05813 -0.035,0 -0.07,0 -0.1043,0 z m -9.9733,1.953181 c -0.2578,0 -0.4942,0.01217 -0.7005,0.03008 0.7323,1.877616 3.0281,2.775162 4.5718,2.844086 -0.012,-0.321442 -0.016,-0.673021 -0.01,-1.06127 0,-0.176292 0.01,-0.349727 0.015,-0.520118 -1.259,-1.05201 -2.7681,-1.290532 -3.8763,-1.292781 z m 11.3142,0 c -1.1083,0.0026 -2.6173,0.240771 -3.8763,1.292781 0.01,0.170391 0.015,0.343826 0.015,0.520118 0.01,0.388249 0,0.739828 -0.01,1.06127 1.5437,-0.06892 3.8395,-0.96647 4.5718,-2.844086 -0.2063,-0.01773 -0.4427,-0.03008 -0.7005,-0.03008 z m -14.0551,1.788848 c -0.062,0 -0.1236,0.0029 -0.1844,0.0029 2.0093,3.153252 4.8599,4.937099 7.3728,3.810159 -0.2424,-0.384254 -0.4457,-1.019201 -0.5371,-2.092484 -2.1307,-1.156335 -4.755,-1.730824 -6.6513,-1.720664 z m 16.796,0 c -1.8963,-0.01005 -4.5204,0.56433 -6.6513,1.720665 -0.091,1.073282 -0.2947,1.708229 -0.5371,2.092483 2.5129,1.12694 5.3634,-0.656907 7.3728,-3.810158 -0.061,0 -0.1224,-0.0029 -0.1844,-0.0029 z" />
        </g>
        <g
           id="g23575">
          <g
             id="g24159">
            <path
               id="ellipse14769"
               style="font-variation-settings:normal;fill:#f8d009;fill-opacity:1;fill-rule:evenodd;stroke-width:0.428891;stroke-linecap:butt;stroke-linejoin:miter;stroke-miterlimit:4;stroke-dasharray:none;stroke-dashoffset:0;stroke-opacity:1;stop-color:#000000"
               d="m 2391.5928,281.33549 c -1.2665,0.5979 -2.4881,2.15959 -2.7211,3.44239 -0.017,0.0923 -0.096,0.14158 -0.1837,0.10744 -1.7807,-0.6956 -2.6772,-1.59012 -3.5435,-2.4803 -0.065,-0.0671 -0.1379,-0.048 -0.1601,0.0432 -0.5114,2.10357 -0.3205,4.96208 0.9757,7.2314 0.046,0.0815 0.151,0.10753 0.2315,0.0593 l 4.3687,-2.61891 a 0.34324503,0.34324503 0 0 1 0.3035,-0.0245 l 1.9107,0.76148 c 0.087,0.0347 0.1165,-9.8e-4 0.068,-0.0811 -0.9345,-1.53597 -1.4524,-3.73805 -1.1167,-6.34043 0.012,-0.0931 -0.048,-0.13999 -0.1327,-0.0999 z m 25.1091,0.1 c 0.3357,2.60237 -0.1821,4.80446 -1.1166,6.34042 -0.049,0.0802 -0.019,0.11587 0.068,0.0811 l 1.9106,-0.76146 a 0.34324244,0.34324244 0 0 1 0.3035,0.0245 l 4.3688,2.61891 c 0.081,0.0482 0.185,0.0222 0.2315,-0.0593 1.2962,-2.26931 1.4871,-5.12783 0.9757,-7.23139 -0.022,-0.0912 -0.095,-0.11011 -0.1604,-0.0429 -0.8663,0.89015 -1.7628,1.78461 -3.5436,2.48015 -0.087,0.0341 -0.1665,-0.0153 -0.1833,-0.1076 -0.233,-1.2828 -1.4547,-2.84449 -2.7212,-3.44239 -0.085,-0.0401 -0.1447,0.007 -0.1327,0.1 z m -26.1168,6.08192 -6.6446,3.98317 c -0.081,0.0482 -0.1115,0.15531 -0.069,0.23874 3.7593,7.30256 11.6631,11.95589 20.3418,11.95589 8.6787,0 16.5825,-4.65333 20.3418,-11.95589 0.043,-0.0834 0.012,-0.19049 -0.069,-0.23874 l -6.6446,-3.98317 a 0.34326076,0.34326076 0 0 0 -0.3035,-0.0245 l -2.8134,1.12115 a 0.10346959,0.10346959 0 0 0 -0.03,0.17426 l 1.3702,1.18908 c 0.071,0.0615 0.084,0.17316 0.028,0.24861 -2.6911,3.6395 -7.1306,5.8257 -11.8805,5.8257 -4.7499,0 -9.1893,-2.18619 -11.8804,-5.82568 -0.056,-0.0755 -0.043,-0.18713 0.028,-0.24864 l 1.3701,-1.18906 a 0.10347313,0.10347313 0 0 0 -0.03,-0.17427 l -2.8134,-1.12115 a 0.34326076,0.34326076 0 0 0 -0.3035,0.0245 z" />
            <path
               id="path20834"
               style="font-variation-settings:normal;opacity:1;fill:#000000;fill-opacity:1;fill-rule:evenodd;stroke:none;stroke-width:0.297508;stroke-linecap:butt;stroke-linejoin:miter;stroke-miterlimit:4;stroke-dasharray:none;stroke-dashoffset:0;stroke-opacity:1;stop-color:#000000;stop-opacity:1"
               d="m 2390.8905,291.11495 c -0.1448,-0.175 -0.3628,-0.29821 -0.6625,-0.38235 -0.3143,-0.0813 -0.5661,-0.0646 -0.7545,0.0702 -0.063,0.0455 -0.1032,0.12174 -0.1181,0.22887 -0.01,0.0932 -0.02,0.1867 -0.028,0.2806 -0.1596,-0.21491 -0.3137,-0.43411 -0.4619,-0.65754 -0.024,0.13548 -0.047,0.27183 -0.067,0.40903 0.089,0.12782 0.1792,0.25423 0.2716,0.37922 l -2.1612,1.60646 c 0,0.15425 0,0.30917 0,0.46471 l 2.3529,-1.82131 c 0.1841,0.23894 0.375,0.47248 0.5722,0.7005 l -1.6266,1.41038 c -0.084,0.0731 -0.1333,0.20088 -0.1432,0.38339 0,0.18464 0.046,0.32514 0.133,0.41864 0.2395,0.25892 0.6141,0.38578 1.1035,0.36181 0.4657,-0.0181 0.7904,-0.14453 0.9801,-0.34945 0.1703,-0.16007 0.092,-0.48277 -0.1837,-0.98338 -0.2873,-0.50897 -0.292,-0.85385 -0.071,-1.0233 0.8584,0.95721 1.8305,1.8135 2.8871,2.56092 l -0.1206,0.17011 c -0.6515,-0.21565 -1.3401,-0.38143 -2.0939,-0.51779 -0.01,0.2273 -0.013,0.4561 -0.013,0.68626 0.6246,0.61811 0.7929,1.29355 0.7239,2.03048 0.018,0.0893 0.036,0.1786 0.055,0.26803 l 1.6908,-2.46817 c 0.1755,0.11991 0.3532,0.23688 0.533,0.35086 -0.036,-0.13548 -0.071,-0.27077 -0.1036,-0.40584 -1.5991,-1.05049 -3.0199,-2.34392 -4.1643,-3.85341 0.048,-0.086 0.096,-0.17166 0.1444,-0.25684 0.1691,-0.10906 0.3934,-0.10887 0.6743,-0.0144 0.2558,0.0843 0.45,0.20267 0.5883,0.36322 0.094,0.10961 0.174,0.22492 0.2401,0.34759 0.068,0.12514 0.1203,0.25967 0.1569,0.40488 0.044,0.15743 0.078,0.3049 0.1028,0.44323 0.027,0.13587 0.047,0.26601 0.06,0.39041 0.021,-0.0501 0.042,-0.10018 0.063,-0.15011 -0.016,-0.80252 -0.1845,-1.39508 -0.5575,-1.84594 0,0 10e-5,-10e-6 10e-5,-10e-6 z m 23.6985,2.70827 c -0.1891,0.13335 -0.3324,0.34487 -0.4417,0.64133 -0.1077,0.31147 -0.1094,0.56596 0.012,0.76252 0.041,0.0664 0.1148,0.11087 0.2213,0.13254 0.093,0.0162 0.1862,0.0316 0.2798,0.0463 -0.2279,0.14579 -0.4592,0.28672 -0.6937,0.42269 0.1343,0.032 0.2696,0.0625 0.4057,0.0915 0.1344,-0.0809 0.2678,-0.16354 0.4,-0.24774 l 1.4496,2.27058 c 0.1524,0.0152 0.3055,0.0286 0.4594,0.0403 l -1.6446,-2.48234 c 0.2335,-0.15349 0.4468,-0.30461 0.6511,-0.45069 0.1614,-0.11525 0.37,-0.12331 0.6356,-0.0243 -0.045,0.0647 -0.081,0.13463 -0.1088,0.21065 -0.028,0.0758 -0.046,0.15282 -0.055,0.2307 -0.01,0.0757 -9e-4,0.15004 0.014,0.22286 0.016,0.068 0.044,0.12936 0.084,0.18426 0.062,0.0851 0.1468,0.14035 0.2575,0.16421 0.1119,0.0188 0.2155,-0.007 0.3102,-0.0793 0.2088,-0.15831 0.2779,-0.36584 0.2084,-0.61365 0.1036,0.0601 0.2095,0.0857 0.3182,0.0753 0.1096,-0.0155 0.2087,-0.0581 0.2953,-0.12718 0.091,-0.11285 0.1397,-0.22281 0.1467,-0.32796 0.01,-0.10998 -0.03,-0.21041 -0.1107,-0.30144 -0.093,-0.10476 -0.3347,-0.12017 -0.7255,-0.0708 -0.044,-0.0519 -0.051,-0.11862 -0.022,-0.20024 0.029,-0.0865 0.073,-0.15667 0.1346,-0.21031 0.095,-0.0829 0.25,-0.10755 0.4695,-0.0792 0.2243,0.0334 0.3775,0.0896 0.4587,0.17625 0.4099,0.44802 0.8192,0.89658 1.2279,1.34566 0.1554,-0.0134 0.3114,-0.0289 0.468,-0.0465 l -2.0822,-2.14367 c 0.5965,-0.57934 1.1491,-1.20179 1.65,-1.86519 l 0.1662,0.12612 c -0.2341,0.6419 -0.4266,1.32341 -0.5941,2.0708 0.2267,0.0177 0.4552,0.0311 0.6854,0.0401 0,0.002 0,0.004 -0.01,0.006 0.3523,-0.32495 0.6978,-0.53435 1.0587,-0.62506 0.1022,-0.024 0.2212,-0.0424 0.358,-0.0575 0.1344,-0.0173 0.2398,-0.0244 0.317,-0.0189 0.077,3.9e-4 0.1897,0.0143 0.3401,0.0405 v -0.003 c 0.09,-0.0156 0.1811,-0.0319 0.2719,-0.049 l -2.4184,-1.76621 c 0.1241,-0.17093 0.2448,-0.34448 0.3619,-0.52063 -0.1358,0.0324 -0.2714,0.0626 -0.4066,0.0908 -0.5421,0.78265 -1.1567,1.51161 -1.8314,2.18346 -0.1374,0.11282 -0.2927,0.10148 -0.4628,-0.0303 -0.081,0.002 -0.1613,0.004 -0.2417,0.005 0.2997,0.29397 0.6003,0.58699 0.9019,0.87907 0.011,0.0106 0,0.0191 -0.012,0.0116 -0.1136,-0.0558 -0.2925,-0.0948 -0.5432,-0.11924 -0.27,-0.0245 -0.4443,-0.005 -0.5293,0.0682 -0.245,0.21114 -0.3199,0.51859 -0.2301,0.93972 -0.1249,-0.10421 -0.2784,-0.15569 -0.4593,-0.15802 -0.1811,-0.002 -0.3345,0.0425 -0.4635,0.13587 -0.239,0.17304 -0.4826,0.34036 -0.7303,0.50187 -0.083,-0.0534 -0.165,-0.10735 -0.2469,-0.16169 -0.168,-0.11153 -0.079,-0.4033 0.039,-0.67785 0.1059,-0.25132 0.2419,-0.43819 0.4153,-0.56501 0.1183,-0.0865 0.2412,-0.15774 0.37,-0.2144 0.1315,-0.0587 0.271,-0.10002 0.4196,-0.12478 0.1614,-0.0308 0.3119,-0.0533 0.4522,-0.0662 0.1382,-0.0155 0.2699,-0.0247 0.3951,-0.0273 -0.048,-0.0251 -0.096,-0.0504 -0.1444,-0.0758 -0.8025,-0.0515 -1.4122,0.0691 -1.8997,0.41303 -6e-4,3.5e-4 0,7e-4 0,10e-4 z m -18.2693,1.46552 c -0.1171,0.008 -0.2124,0.0843 -0.2849,0.23082 -0.089,0.17981 -0.068,0.37139 0.073,0.57341 0.1236,0.17878 0.2912,0.31513 0.4986,0.4048 0.043,0.0185 0.098,0.0399 0.1654,0.065 0.071,0.0258 0.1508,0.0537 0.2398,0.0825 0.1144,0.038 0.126,0.0416 0.2404,0.0795 0.068,0.0229 0.1256,0.0432 0.1725,0.061 0.094,0.0357 0.1769,0.0847 0.2498,0.14751 0.092,0.0841 0.124,0.16749 0.094,0.25124 -0.035,0.0996 -0.1144,0.12667 -0.2376,0.0781 -0.8157,-0.29764 -1.6107,-0.64854 -2.376,-1.05026 0.044,0.13094 0.091,0.26194 0.1383,0.39296 0.3933,0.19886 0.794,0.38461 1.2008,0.55693 l -0.4177,0.98412 c -0.029,0.0691 -0.042,0.13762 -0.036,0.20668 0.01,0.069 0.021,0.13288 0.049,0.19232 0.031,0.0609 0.072,0.11465 0.1218,0.16085 0.054,0.0479 0.1146,0.0849 0.1818,0.11143 0.056,0.022 0.1272,0.0335 0.2129,0.0335 0.086,1.2e-4 0.176,-0.0137 0.2708,-0.0404 0.1021,-0.024 0.1963,-0.0568 0.2824,-0.0985 0.086,-0.0416 0.1627,-0.0874 0.2292,-0.13648 0.076,0.14944 0.095,0.28531 0.053,0.40829 -0.072,0.21324 -0.2318,0.35502 -0.4837,0.41769 -0.1238,0.032 -0.2483,0.0445 -0.373,0.0379 -0.1246,-0.007 -0.2528,-0.0353 -0.3829,-0.0866 -0.4261,-0.16815 -0.6898,-0.52801 -0.7734,-1.05667 -0.027,-0.21078 -0.024,-0.41634 0.01,-0.61687 0.03,-0.20052 0.083,-0.39628 0.1572,-0.58732 -0.05,-0.0653 -0.1,-0.13073 -0.1491,-0.19635 -0.541,1.53576 -0.3425,2.55877 0.6429,2.94452 0.3529,0.12716 0.6995,0.12641 1.027,2.5e-4 0.2866,-0.14742 0.4699,-0.3888 0.5593,-0.71525 0.049,-0.14963 0.045,-0.33294 0,-0.55158 -0.053,-0.24479 -0.1494,-0.39153 -0.2934,-0.44302 -0.04,-0.0143 -0.1462,0.0348 -0.323,0.14387 -0.172,0.0963 -0.3387,0.13668 -0.4974,0.12172 -0.062,-0.0247 -0.1021,-0.0679 -0.1192,-0.12994 -0.013,-0.0606 -0.01,-0.11786 0.013,-0.17158 l 0.3313,-0.81559 c 1.1997,0.48647 2.45,0.85717 3.7226,1.10435 l -0.216,1.11668 c 0,0.009 -0.01,0.006 -0.012,-0.002 -0.223,-0.65538 -0.5334,-1.03032 -0.9738,-1.14277 -0.1022,-0.0261 -0.202,-0.0382 -0.3002,-0.0365 -0.098,0.002 -0.1888,0.017 -0.2722,0.0466 -0.082,0.0263 -0.1561,0.0743 -0.2204,0.14443 -0.063,0.0669 -0.1095,0.14757 -0.1376,0.24252 -0.085,0.31516 0.074,0.53291 0.4897,0.63199 0.1255,0.0225 0.2284,0.0135 0.3076,-0.0266 0.081,-0.0433 0.1346,-0.12678 0.1646,-0.2496 0.023,-0.0932 0,-0.22223 -0.064,-0.39104 0.2191,-0.004 0.424,0.14119 0.5336,0.27404 0.2883,0.34965 0.4097,0.74999 0.4088,1.15708 0,0.18416 -0.01,0.37453 -0.039,0.56648 0,0.008 -0.01,0.005 -0.012,-0.002 -0.2525,-0.5965 -0.5776,-0.94116 -1.0126,-1.0485 -0.1129,-0.0278 -0.2229,-0.0436 -0.3299,-0.0471 -0.1031,-0.002 -0.1984,0.0127 -0.2869,0.0449 -0.084,0.0334 -0.1602,0.0847 -0.2265,0.1546 -0.065,0.0667 -0.1117,0.14551 -0.1382,0.23741 -0.084,0.29066 0.073,0.49883 0.4826,0.60468 0.1566,0.0337 0.2826,0.0238 0.3767,-0.0272 0.094,-0.0511 0.1481,-0.12654 0.1629,-0.22482 0.01,-0.0399 0.011,-0.0865 0.01,-0.14004 7e-4,-0.0561 -0.027,-0.13641 -0.081,-0.24105 0.242,-0.0192 0.4598,0.16337 0.5566,0.25932 0.1251,0.12387 0.2368,0.30076 0.3414,0.52983 0.023,0.0567 0.043,0.12302 0.058,0.19893 0.02,0.0733 0.036,0.14217 0.045,0.20642 0,0.0586 -0.035,0.18844 -0.092,0.38941 0.063,0.0622 0.127,0.12407 0.1913,0.1857 l 0.5946,-3.3541 c 1.1266,0.20068 2.2687,0.30458 3.407,0.30637 0.2581,-4.2e-4 0.5165,-0.006 0.7748,-0.0169 -0.113,-0.0906 -0.2243,-0.18221 -0.3341,-0.27471 -0.1469,0.004 -0.2939,0.006 -0.4407,0.006 -2.1086,-0.004 -4.2326,-0.36398 -6.2421,-1.04395 0.094,-0.24226 0.085,-0.45565 -0.019,-0.64073 -0.1033,-0.1884 -0.2813,-0.32819 -0.5362,-0.42746 -0.046,-0.018 -0.1058,-0.0375 -0.1801,-0.0602 -0.07,-0.0242 -0.1509,-0.0517 -0.2448,-0.0834 -0.096,-0.0331 -0.1796,-0.0627 -0.2484,-0.0888 -0.066,-0.0247 -0.1213,-0.0474 -0.1661,-0.0673 -0.055,-0.0244 -0.1077,-0.0554 -0.1594,-0.0941 -0.049,-0.0373 -0.091,-0.0755 -0.1262,-0.11465 -0.099,-0.11782 -0.1243,-0.22483 -0.078,-0.31974 0.034,-0.0705 0.097,-0.11607 0.1862,-0.13792 -0.012,-0.0131 -0.028,-0.03 -0.044,-0.0492 -0.014,-0.0181 -0.025,-0.0324 -0.035,-0.0446 1e-4,-1.9e-4 1e-4,-3.8e-4 2e-4,-5.8e-4 z m 10.2031,3.02735 c 0.1191,0.0849 0.2397,0.16877 0.3618,0.25152 0.1338,0.12594 0.2454,0.20616 0.3308,0.24126 0.057,0.0222 0.1271,0.044 0.2112,0.0648 0.087,0.0168 0.1901,0.0307 0.3079,0.0408 0.2237,0.0155 0.3788,0.0447 0.4673,0.0934 0.1374,0.08 0.233,0.23824 0.2829,0.47544 -0.074,-0.0229 -0.1618,-0.0241 -0.266,-0.003 -0.1965,0.0388 -0.3454,0.10712 -0.4482,0.2083 -0.1198,0.11778 -0.1688,0.25533 -0.1428,0.41374 0.023,0.13811 0.095,0.24418 0.2197,0.31642 0.1279,0.0681 0.2739,0.0872 0.4356,0.0564 0.089,-0.017 0.1824,-0.0544 0.2794,-0.11263 0.097,-0.0582 0.1837,-0.15175 0.2595,-0.28035 0.4669,0.0231 0.8611,0.28331 1.1957,0.79513 0.055,0.0243 0.1101,0.0483 0.1654,0.0722 l -0.7927,-2.90694 c 0.1416,-0.0387 0.2829,-0.0789 0.4236,-0.1206 0.1158,0.0818 0.2477,0.14975 0.3768,0.19585 0.057,0.0205 0.1324,0.0267 0.2191,0.0324 0.089,0.006 0.1923,0.003 0.3103,-0.006 0.2234,-0.0169 0.3815,-0.0126 0.4762,0.0222 0.1477,0.0586 0.2657,0.20058 0.3505,0.42743 -0.075,-0.0119 -0.1634,5.3e-4 -0.2633,0.0365 -0.1885,0.0679 -0.3254,0.15788 -0.4118,0.2733 -0.1008,0.13446 -0.128,0.2777 -0.079,0.43046 0.043,0.13318 0.1306,0.22717 0.2647,0.27976 0.1366,0.0481 0.2834,0.045 0.4385,-0.01 0.085,-0.0302 0.172,-0.0813 0.259,-0.1535 0.087,-0.0722 0.1591,-0.17786 0.2146,-0.31634 0.4647,-0.0476 0.8925,0.14975 1.2997,0.60405 0.058,0.0156 0.116,0.0309 0.1742,0.046 l -1.2194,-2.74863 c 0.1714,-0.0759 0.3416,-0.15411 0.5105,-0.23474 -0.1348,-0.0412 -0.2687,-0.0839 -0.4015,-0.12794 -1.8329,0.83848 -3.8072,1.39656 -5.8106,1.6435 z m 1.0986,0.12409 c 0.4979,-0.0887 0.9928,-0.19636 1.483,-0.32244 l 0.5151,2.00503 c 0,0.01 -0.01,0.014 -0.014,0.004 -0.093,-0.0861 -0.2018,-0.16217 -0.3228,-0.23107 -0.117,-0.0699 -0.2484,-0.13514 -0.3936,-0.19671 -0.013,-0.10931 -0.012,-0.0902 -0.022,-0.13687 -0.059,-0.26013 -0.2123,-0.48379 -0.4636,-0.66376 -0.2788,-0.19959 -0.5126,-0.32875 -0.7815,-0.45823 1e-4,-1e-5 1e-4,-2e-5 2e-4,-3e-5 z m 2.9161,-0.74827 c 0.4791,-0.16196 0.9519,-0.3419 1.4166,-0.53937 l 0.8096,1.90136 c 0.01,0.0178 -0.01,0.0118 -0.014,0.006 -0.1065,-0.0691 -0.2231,-0.12968 -0.353,-0.17949 -0.126,-0.0513 -0.2656,-0.0959 -0.4181,-0.13488 -0.02,-0.0753 -0.025,-0.0871 -0.043,-0.1318 -0.097,-0.24799 -0.2822,-0.44588 -0.5575,-0.58603 -0.3018,-0.1537 -0.588,-0.25242 -0.8412,-0.33604 0,0 -1e-4,5e-5 -1e-4,5e-5 z m -9.0974,1.04248 c 0.2476,1.61145 0.9241,2.47842 1.8661,2.51658 0.3358,0.0136 0.6413,-0.0723 0.9072,-0.25358 0.01,-0.006 0.019,-0.0129 0.028,-0.0195 0.1239,-0.0987 0.2194,-0.21044 0.2867,-0.33396 0.071,-0.12363 0.1045,-0.25547 0.1017,-0.39504 0,-0.15998 -0.036,-0.31087 -0.097,-0.45286 -0.061,-0.14542 -0.1477,-0.27719 -0.259,-0.39585 -0.02,-0.0198 -0.04,-0.0389 -0.061,-0.0573 -0.1028,-0.0918 -0.2148,-0.16559 -0.3364,-0.22171 -0.1461,-0.0708 -0.304,-0.10916 -0.4767,-0.11659 -0.2027,-0.009 -0.3779,0.0335 -0.5289,0.12894 -0.1703,0.10424 -0.2651,0.24494 -0.2797,0.42517 -0.013,0.15634 0.027,0.29295 0.1216,0.40924 0.095,0.11625 0.2304,0.18034 0.4054,0.1896 0.3558,0.0188 0.535,-0.11767 0.5425,-0.3922 0,-0.12598 -0.038,-0.23962 -0.1232,-0.34135 0.1045,-0.0202 0.183,-0.0301 0.2366,-0.0289 0.1607,0.004 0.2992,0.0781 0.419,0.22464 0.01,0.008 0.013,0.0168 0.02,0.0253 0,0 0,0 0,0 0.088,0.11654 0.1328,0.2491 0.1338,0.39817 9e-4,0.13536 -0.043,0.26232 -0.1338,0.38004 -0.042,0.0539 -0.093,0.10596 -0.1547,0.15581 -0.2323,0.15504 -0.4735,0.22798 -0.7154,0.21828 -0.5,-0.0201 -0.9166,-0.27079 -1.2177,-0.73658 -0.066,-0.0989 -0.1477,-0.25595 -0.2407,-0.46897 -0.089,-0.21599 -0.1815,-0.47371 -0.2744,-0.77169 -0.057,-0.0283 -0.1138,-0.0569 -0.1704,-0.0857 z m -11.7727,-5.7889 c -0.1054,0.38786 -0.032,0.82563 0.2411,1.29289 0.01,0.0158 -0.018,0.0516 -0.072,0.10716 -0.1105,0.11284 -0.3414,0.17467 -0.694,0.1673 -0.3506,-0.005 -0.5961,-0.0851 -0.7284,-0.22938 -0.07,-0.0769 -0.064,-0.15306 0.019,-0.22766 0.4114,-0.3701 0.8228,-0.74021 1.2341,-1.11031 z m 2.8518,2.77305 -0.9091,1.28195 c 6e-4,-0.53721 -0.1711,-1.06432 -0.4948,-1.60496 0.2738,0.0446 0.5223,0.092 0.7491,0.14516 0.2295,0.0554 0.4475,0.114 0.6548,0.17785 z m 27.2749,-3.73815 1.2523,0.95091 c -0.539,-0.0162 -1.0733,0.1382 -1.6263,0.44058 0.056,-0.27186 0.1124,-0.51862 0.1738,-0.74324 0.064,-0.22745 0.1298,-0.44312 0.2002,-0.64825 z m -29.0099,4.277 c -0.077,-0.0614 -0.1606,-0.092 -0.2514,-0.0919 -0.088,-0.002 -0.1596,0.0287 -0.2135,0.094 -0.05,0.06 -0.067,0.13587 -0.05,0.2287 0.019,0.0903 0.069,0.16725 0.1479,0.23055 0.079,0.0634 0.1656,0.0943 0.2575,0.0928 0.094,-0.004 0.1643,-0.0378 0.2117,-0.0997 0.052,-0.0672 0.065,-0.14403 0.043,-0.22976 -0.021,-0.0889 -0.069,-0.16317 -0.1459,-0.22471 z m 29.4845,-2.52172 c -0.065,0.0751 -0.099,0.15757 -0.1025,0.2485 -0.01,0.0889 0.022,0.16126 0.085,0.21764 0.058,0.0518 0.1338,0.0714 0.2272,0.058 0.091,-0.0161 0.1704,-0.0627 0.2373,-0.14016 0.067,-0.0775 0.1016,-0.16291 0.1038,-0.25507 0,-0.0947 -0.031,-0.16627 -0.091,-0.21587 -0.065,-0.0539 -0.1417,-0.0705 -0.2285,-0.0513 -0.09,0.0175 -0.1662,0.0632 -0.231,0.13825 z"
               class="UnoptimicedTransforms"
               transform="translate(-1.4164135e-5)" />
          </g>
          <path
             id="path20443"
             style="font-size:3.175px;font-family:Kalpurush;-inkscape-font-specification:Kalpurush;fill:#f8d009;fill-opacity:1;stroke-width:0.348322"
             d="m 2396.2434,287.90244 c -0.1502,-0.1551 -0.3686,-0.25456 -0.6559,-0.29896 -0.3004,-0.04 -0.5269,0.0137 -0.6798,0.16185 -0.052,0.0502 -0.079,0.12386 -0.079,0.22191 l 0.01,0.25257 -0.4874,-0.50286 -0.01,0.36867 0.2777,0.28651 -1.7845,1.72952 -0.01,0.37554 1.9733,-1.91252 c 0.4938,0.50947 0.9874,1.01873 1.4811,1.52813 l -0.1383,0.13407 c -0.5161,-0.26711 -1.0889,-0.4614 -1.718,-0.58415 l -0.1124,0.58582 c 0.2324,0.29379 0.3532,0.59356 0.3617,0.89929 0,0.0858 0,0.18723 -0.022,0.30185 -0.012,0.11353 -0.032,0.20875 -0.061,0.2877 -0.026,0.0811 -0.046,0.13685 -0.059,0.16863 -0.01,0.0304 -0.021,0.0595 -0.035,0.0858 l -0.023,0.22483 1.9832,-1.9221 0.3766,0.38863 0.016,-0.36507 c -0.6409,-0.66128 -1.2818,-1.32263 -1.9227,-1.98384 l 0.1061,-0.24744 c 0.1432,-0.11778 0.3459,-0.14987 0.6134,-0.0899 0.2427,0.0526 0.4322,0.14949 0.5695,0.2911 0.093,0.0967 0.1732,0.20058 0.2381,0.31241 0.067,0.11427 0.1165,0.2376 0.1498,0.37092 0.04,0.14468 0.069,0.28034 0.087,0.40673 0.02,0.12471 0.032,0.24307 0.037,0.35638 l 0.065,-0.13576 c 0.024,-0.7303 -0.1571,-1.29553 -0.545,-1.69579 z m -0.4093,2.64084 -1.0424,1.01026 c 0.1265,-0.44977 0.096,-0.91343 -0.091,-1.39021 0.2251,0.0477 0.4293,0.10333 0.6122,0.16594 0.185,0.0648 0.3588,0.13617 0.5215,0.21401 z" />
          <path
             id="path20447"
             style="font-size:3.175px;font-family:Kalpurush;-inkscape-font-specification:Kalpurush;fill:#f8d009;fill-opacity:1;stroke-width:0.348322"
             d="m 2403.4409,292.70552 c -0.1347,0 -0.2676,0.0344 -0.3991,0.10317 -0.1315,0.0688 -0.2563,0.16309 -0.3752,0.28207 -0.238,0.25675 -0.3571,0.52619 -0.3571,0.80797 0,0.13469 0.042,0.24275 0.127,0.32411 0.088,0.0815 0.197,0.12153 0.3287,0.12153 0.1,0 0.1848,-0.0262 0.2537,-0.0795 0.069,-0.0564 0.1038,-0.13307 0.1038,-0.2301 0,-0.20038 -0.064,-0.3004 -0.1927,-0.3004 -0.054,0 -0.1144,0.004 -0.1834,0.0145 0.019,-0.0908 0.05,-0.1769 0.093,-0.25835 0.044,-0.0814 0.099,-0.16239 0.1644,-0.24386 0.079,-0.0908 0.1535,-0.16022 0.2255,-0.20714 0.075,-0.047 0.1538,-0.0704 0.2347,-0.0704 0.1254,0 0.188,0.027 0.188,0.0802 v 1.99126 c -0.2474,-0.20977 -0.5086,-0.31493 -0.7842,-0.31493 l -0.2491,0.009 c -0.046,0.003 -0.094,0.004 -0.1445,0.004 h -0.1087 c -0.1124,0 -0.2109,-0.008 -0.2958,-0.0275 -0.085,-0.0188 -0.1531,-0.0445 -0.2064,-0.0757 -0.069,-0.0438 -0.1223,-0.10582 -0.1598,-0.18729 -0.038,-0.0845 -0.057,-0.18532 -0.057,-0.30116 0,-0.11587 0.012,-0.22172 0.038,-0.31876 0.028,-0.0971 0.064,-0.18179 0.1079,-0.25378 l -0.1,-0.10317 c -0.073,0.0877 -0.1284,0.18915 -0.1688,0.30499 -0.041,0.11272 -0.061,0.24124 -0.061,0.38526 0,0.66064 0.3207,0.99066 0.9625,0.99066 0.047,0 0.1027,-0.002 0.1688,-0.004 0.069,-0.007 0.1495,-0.015 0.2402,-0.0275 0.1815,-0.0282 0.3158,-0.0428 0.4036,-0.0428 0.1662,0 0.2961,0.0599 0.3898,0.17886 0.025,0.0344 0.052,0.0797 0.075,0.13608 0.024,0.0531 0.052,0.11891 0.08,0.1972 0.025,0.0908 0.058,0.14705 0.099,0.16894 l 0.033,0.009 v -2.64407 c 0,-0.0846 -0.056,-0.17366 -0.1689,-0.26755 -0.1187,-0.10024 -0.221,-0.15057 -0.3057,-0.15057 z m 0.6161,0.0244 0.2774,0.27213 c 0.097,0.13156 0.1778,0.21916 0.2439,0.26295 0.043,0.0283 0.099,0.0582 0.1643,0.0895 0.069,0.0281 0.151,0.0559 0.2446,0.0841 0.1779,0.0501 0.2985,0.10487 0.3615,0.16433 0.097,0.0971 0.1445,0.25698 0.1445,0.47928 -0.053,-0.0344 -0.1216,-0.052 -0.2063,-0.052 -0.16,0 -0.287,0.038 -0.3807,0.11314 -0.1095,0.0877 -0.1643,0.20523 -0.1643,0.35238 0,0.1284 0.043,0.23424 0.1276,0.31876 0.088,0.0814 0.1943,0.1223 0.3195,0.1223 0.069,0 0.1439,-0.0168 0.2249,-0.0512 0.082,-0.0344 0.1621,-0.10234 0.2399,-0.20257 0.3476,0.11272 0.5913,0.43547 0.7323,0.96772 l 0.1039,0.10318 v -2.76178 h 0.474 l -0.2631,-0.2622 z m 0.9066,0.2622 h 1.2773 v 1.89799 0 c -0.054,-0.0971 -0.1194,-0.18979 -0.1972,-0.27747 -0.075,-0.0877 -0.1629,-0.17385 -0.263,-0.25837 v -0.0657 -0.0611 c 0,-0.24422 -0.083,-0.47278 -0.2493,-0.68567 -0.1027,-0.14402 -0.2908,-0.32731 -0.5634,-0.5496 z" />
          <path
             d="m 2415.5306,290.52516 q -0.064,0.0245 -0.1936,-0.0334 -0.1174,-0.0434 -0.202,-0.0669 -0.088,-0.0267 -0.1525,-0.0311 -0.2269,-0.009 -0.3884,0.18123 -0.085,0.10026 -0.2295,0.33503 -0.074,0.11577 -0.1339,0.20062 -0.061,0.0779 -0.1065,0.13138 -0.6239,0.73322 -1.3787,0.091 -0.1644,-0.14 -0.2544,-0.29525 -0.093,-0.15904 -0.1226,-0.32665 l 0.1428,-0.009 q 0.04,0.12022 0.1233,0.24652 0.087,0.12248 0.2193,0.23514 0.1323,0.1126 0.2657,0.15136 0.1301,0.0358 0.2467,2.4e-4 0.088,-0.0306 0.1913,-0.10872 0.1037,-0.0786 0.2129,-0.207 0.024,-0.0282 0.071,-0.0824 0.049,-0.0571 0.092,-0.11409 l 0.1552,-0.19475 q 0.2678,-0.3147 0.7479,-0.39343 l -1.5166,-1.29041 q -0.061,-0.0518 -0.1826,0.0912 -0.08,0.0936 -0.098,0.22453 -0.017,0.12803 0.012,0.30558 0.029,0.15532 0.08,0.28352 0.051,0.12871 0.1364,0.23823 0.056,-0.0887 0.1073,-0.14897 0.1248,-0.1467 0.3537,0.048 0.1108,0.0944 0.1077,0.2282 0,0.13091 -0.1033,0.24494 -0.1278,0.15027 -0.3061,0.17125 -0.1753,0.0182 -0.3292,-0.11312 -0.3219,-0.27391 -0.3839,-0.79528 -0.021,-0.25162 0.029,-0.46879 0.05,-0.21721 0.18,-0.37088 0.082,-0.0969 0.3124,-0.13521 0.2168,-0.0376 0.3135,0.0447 l 2.0137,1.71345 z"
             style="font-size:3.175px;font-family:Kalpurush;-inkscape-font-specification:Kalpurush;fill:#f8d009;fill-opacity:1;stroke-width:0.348322"
             id="path20451" />
        </g>
      </g>
    </g>
  </g>
  <metadata
     id="metadata24038">
    <rdf:RDF>
      <cc:Work
         rdf:about="">
        <dc:title>Bangladesh Military Academy-বাংলাদেশ মিলিটারি একাডেমি</dc:title>
      </cc:Work>
    </rdf:RDF>
  </metadata>
</svg>
